<?xml version="1.0" standalone="no"?>
<!DOCTYPE svg PUBLIC "-//W3C//DTD SVG 20010904//EN"
 "http://www.w3.org/TR/2001/REC-SVG-20010904/DTD/svg10.dtd">
<svg version="1.0" xmlns="http://www.w3.org/2000/svg"
 width="512.000000pt" height="512.000000pt" viewBox="0 0 512.000000 512.000000"
 preserveAspectRatio="xMidYMid meet">
<metadata>
Created by potrace 1.11, written by Peter Selinger 2001-2013
</metadata>
<g transform="translate(0.000000,512.000000) scale(0.100000,-0.100000)"
fill="#000000" stroke="none">
<path d="M0 2560 l0 -2560 2560 0 2560 0 0 2560 0 2560 -2560 0 -2560 0 0
-2560z m1180 -697 l0 -118 -73 -1 c-94 -1 -163 -30 -217 -92 -67 -76 -73 -106
-78 -449 l-4 -303 -124 0 -124 0 2 533 3 532 118 3 117 3 0 -78 1 -78 27 31
c71 81 184 130 310 133 l42 1 0 -117z m831 103 c125 -27 257 -116 303 -204
l16 -31 -95 -55 -94 -56 -46 49 c-64 69 -128 95 -230 95 -97 -1 -173 -32 -230
-96 -63 -69 -80 -118 -80 -233 0 -87 3 -107 26 -155 31 -67 75 -112 143 -148
44 -22 64 -26 141 -27 79 0 97 3 148 28 33 16 71 46 89 68 17 21 36 39 41 39
5 0 49 -23 98 -51 l89 -51 -22 -40 c-46 -82 -154 -158 -267 -190 -75 -21 -229
-24 -313 -7 -91 19 -213 84 -276 147 -103 104 -152 228 -152 387 0 162 44 271
154 381 48 48 92 81 136 102 122 58 286 76 421 48z m1245 3 c32 -6 95 -28 140
-49 179 -86 284 -267 284 -490 0 -259 -152 -464 -390 -525 -48 -12 -95 -16
-175 -13 -98 3 -117 7 -175 34 -36 17 -83 46 -103 63 l-37 33 -2 -254 -3 -253
-122 -3 -123 -3 0 731 0 731 118 -3 117 -3 3 -63 3 -63 39 35 c99 89 259 125
426 95z"/>
<path d="M3029 1757 c-101 -29 -167 -86 -212 -185 -32 -72 -30 -208 4 -282 53
-114 142 -178 262 -187 217 -18 373 164 337 393 -18 113 -77 197 -172 243 -57
27 -157 35 -219 18z"/>
</g>
</svg>
